<svg data-v-0dd9719b="" version="1.0" xmlns="http://www.w3.org/2000/svg" xmlns:xlink="http://www.w3.org/1999/xlink" width="100%" height="100%" viewBox="0 0 340.000000 250.000000" preserveAspectRatio="xMidYMid meet" color-interpolation-filters="sRGB" style="margin: auto;"> <rect data-v-0dd9719b="" x="0" y="0" width="100%" height="100%" fill="#030f2b" fill-opacity="1" class="background"></rect> <rect data-v-0dd9719b="" x="0" y="0" width="100%" height="100%" fill="url(#watermark)" fill-opacity="1" class="watermarklayer"></rect> <g data-v-0dd9719b="" fill="#a1c4fd" class="icon-text-wrapper icon-svg-group iconsvg" transform="translate(116.17499923706055,53.85700225830078)"><g fill="#cd8c2a" class="iconsvg-imagesvg icon_container" transform="translate(7.325000762939453,0)" mask="url(#dce2d3bf-e83e-4cb9-b68f-923f49dc177c)"><rect fill="#a1c4fd" fill-opacity="0" stroke-width="2" x="0" y="0" width="93" height="93" class="image-rect"></rect> <svg viewBox="0 0 60 60" x="0" y="0" width="93" height="93" class="image-svg-svg bn" style="overflow: visible;"><g hollow-target="iconBnFill" mask="url(#d4664c54-0ac4-4dc6-94a4-82ec0f0a29c5)"><g><svg fill="#000000" xmlns:x="http://ns.adobe.com/Extensibility/1.0/" xmlns:i="http://ns.adobe.com/AdobeIllustrator/10.0/" xmlns:graph="http://ns.adobe.com/Graphs/1.0/" xmlns="http://www.w3.org/2000/svg" xmlns:xlink="http://www.w3.org/1999/xlink" version="1.1" x="0" y="0" viewBox="6 6 52 52" enable-background="new 0 0 64 64" xml:space="preserve" style="overflow: visible;" width="60" height="60" filtersec="colorsf4336669295" filter="url(#lR9T6Jf6YoeYJMpQgC-lk)"><g transform="scale(1, 1) skewX(0)"><metadata><sfw xmlns="http://ns.adobe.com/SaveForWeb/1.0/"><slices></slices><slicesourcebounds y="-8160" x="-8165" width="16389" height="16384" bottomleftorigin="true"></slicesourcebounds><optimizationsettings><targetsettings targetsettingsid="0" fileformat="PNG24Format"><png24format transparency="true" filtered="false" interlaced="false" nomattecolor="false" mattecolor="#FFFFFF"></png24format></targetsettings></optimizationsettings></sfw></metadata><g><path d="M56,6H8C6.896,6,6,6.896,6,8v48c0,1.104,0.896,2,2,2h48c1.104,0,2-0.896,2-2V8C58,6.896,57.104,6,56,6z"></path></g></g><defs><filter id="lR9T6Jf6YoeYJMpQgC-lk"><feColorMatrix type="matrix" values="0 0 0 0 0.80078125  0 0 0 0 0.546875  0 0 0 0 0.1640625  0 0 0 1 0"></feColorMatrix></filter></defs></svg></g> <g filter="url(#colors3954764144)"><svg xmlns="http://www.w3.org/2000/svg" xmlns:xlink="http://www.w3.org/1999/xlink" viewBox="0 0 47.52 48.24000000000001" width="44" height="44" x="8" y="8" class="image-svg-letter"><path transform="translate(-2.232 48.24000000000001)" d="M2.23-48.24L2.23-32.04L10.08-32.04L10.66-39.74L20.88-39.74L20.88-8.50L16.13-8.50L16.13 0L35.86 0L35.86-8.50L31.18-8.50L31.18-39.74L41.33-39.74L41.98-32.04L49.75-32.04L49.75-48.24Z"></path></svg></g></g><mask id="d4664c54-0ac4-4dc6-94a4-82ec0f0a29c5"><g fill="white"><svg xmlns:x="http://ns.adobe.com/Extensibility/1.0/" xmlns:i="http://ns.adobe.com/AdobeIllustrator/10.0/" xmlns:graph="http://ns.adobe.com/Graphs/1.0/" xmlns="http://www.w3.org/2000/svg" xmlns:xlink="http://www.w3.org/1999/xlink" version="1.1" x="0" y="0" viewBox="6 6 52 52" enable-background="new 0 0 64 64" xml:space="preserve" style="overflow: visible;" width="60" height="60" filtersec="colorsf4336669295"><g transform="scale(1, 1) skewX(0)"><metadata><sfw xmlns="http://ns.adobe.com/SaveForWeb/1.0/"><slices></slices><slicesourcebounds y="-8160" x="-8165" width="16389" height="16384" bottomleftorigin="true"></slicesourcebounds><optimizationsettings><targetsettings targetsettingsid="0" fileformat="PNG24Format"><png24format transparency="true" filtered="false" interlaced="false" nomattecolor="false" mattecolor="#FFFFFF"></png24format></targetsettings></optimizationsettings></sfw></metadata><g><path d="M56,6H8C6.896,6,6,6.896,6,8v48c0,1.104,0.896,2,2,2h48c1.104,0,2-0.896,2-2V8C58,6.896,57.104,6,56,6z"></path></g></g><defs></defs></svg></g> <g fill="black"><svg xmlns="http://www.w3.org/2000/svg" xmlns:xlink="http://www.w3.org/1999/xlink" viewBox="0 0 47.52 48.24000000000001" width="44" height="44" x="8" y="8" class="image-svg-letter"><path transform="translate(-2.232 48.24000000000001)" d="M2.23-48.24L2.23-32.04L10.08-32.04L10.66-39.74L20.88-39.74L20.88-8.50L16.13-8.50L16.13 0L35.86 0L35.86-8.50L31.18-8.50L31.18-39.74L41.33-39.74L41.98-32.04L49.75-32.04L49.75-48.24Z"></path></svg></g></mask></svg> <defs><filter id="colors3954764144"><feColorMatrix type="matrix" values="0 0 0 0 0.80078125  0 0 0 0 0.546875  0 0 0 0 0.1640625  0 0 0 1 0" class="icon-fecolormatrix"></feColorMatrix></filter> <filter id="colorsf4336669295"><feColorMatrix type="matrix" values="0 0 0 0 0.99609375  0 0 0 0 0.99609375  0 0 0 0 0.99609375  0 0 0 1 0" class="icon-fecolormatrix"></feColorMatrix></filter> <filter id="colorsb2678200373"><feColorMatrix type="matrix" values="0 0 0 0 0  0 0 0 0 0  0 0 0 0 0  0 0 0 1 0" class="icon-fecolormatrix"></feColorMatrix></filter></defs><rect v-gra="id" width="105" height="105" transform="translate(-6, -6)" style="pointer-events:none;" fill="url(#b7kDjVt2DYZ0Hmk8ndqMA)"></rect></g> <g transform="translate(0,100)"><g data-gra="path-name" fill-rule="" class="tp-name iconsvg-namesvg" transform="translate(0,0)" fill="url(#69f9aaf0-1b36-49ce-bdcf-b0d4eaaf1650)"><g transform="scale(1)"><g><path d="M1.18-25.46L1.18-16.91 5.32-16.91 5.62-20.98 11.02-20.98 11.02-4.48 8.51-4.48 8.51 0 18.92 0 18.92-4.48 16.45-4.48 16.45-20.98 21.81-20.98 22.15-16.91 26.26-16.91 26.26-25.46ZM38.38 0L38.38-3.88 35.87-3.88 35.87-7.49C36.33-12.35 38.84-14.86 42.64-14.86 42.98-14.86 43.32-14.82 43.74-14.78L43.74-19.8C43.43-19.84 43.13-19.84 42.86-19.84 39.67-19.84 37.39-18.2 35.87-15.81L35.87-19.53 28.23-19.53 28.23-15.69 30.7-15.69 30.7-3.88 28.23-3.88 28.23 0ZM44.54-9.84C44.54-3.31 48.11 0.3 53.01 0.3 55.44 0.3 57.34-0.46 58.75-1.98L58.75 0 66.42 0 66.42-3.88 63.92-3.88 63.92-19.53 58.75-19.53 58.75-17.52C57.42-19.08 55.48-19.84 53.01-19.84 48.11-19.84 44.54-16.23 44.54-9.84ZM49.86-9.73C49.86-13.22 51.83-15.24 54.57-15.24 56.54-15.24 58.14-14.06 58.75-12.08L58.75-7.26C58.18-5.32 56.54-4.14 54.57-4.14 51.83-4.14 49.86-6.23 49.86-9.73ZM77.33-19.84C71.59-19.84 67.45-16.23 67.45-9.84 67.45-3.31 71.55 0.3 77.41 0.3 80.45 0.3 83.45-0.8 85.46-2.51L84.25-6.69C82.61-5.36 80.45-4.33 78.01-4.33 75.05-4.33 72.77-6.35 72.77-9.88 72.77-13.26 74.97-15.28 77.9-15.39 78.55-15.35 79.19-15.28 79.84-15.09L80.18-10.79 84.82-10.79 84.82-18.39C83.22-19.19 80.03-19.84 77.33-19.84ZM94.85 0L94.85-8.25 96.33-8.25 102.11 0 108.83 0 108.83-3.88 105.07-3.88 100.74-9.96 106.13-15.69 108.53-15.69 108.53-19.53 98.27-19.53 98.27-15.69 100.4-15.69 96.71-11.63 94.85-11.63 94.85-26.83 87.21-26.83 87.21-22.99 89.68-22.99 89.68-3.88 87.21-3.88 87.21 0Z" transform="translate(-1.1800000667572021, 26.829999923706055)"></path></g> <!----> <!----> <!----> <!----> <!----> <!----> <!----></g></g> <g data-gra="path-slogan" fill-rule="" class="tp-slogan iconsvg-slogansvg" fill="#ffffff" transform="translate(5.155002593994141,34.1299991607666)"><!----> <!----> <g transform="scale(1, 1)"><g transform="scale(1)"><path d="M0.62-3.94L0.62-3.94Q0.62-4.88 0.89-5.64Q1.15-6.40 1.62-6.92Q2.09-7.45 2.73-7.73Q3.37-8.02 4.13-8.02L4.13-8.02Q4.85-8.02 5.39-7.72Q5.93-7.43 6.28-7.04L6.28-7.04L5.71-6.41Q5.40-6.74 5.02-6.94Q4.64-7.14 4.14-7.14L4.14-7.14Q3.58-7.14 3.12-6.92Q2.66-6.70 2.34-6.28Q2.02-5.87 1.84-5.28Q1.66-4.69 1.66-3.96L1.66-3.96Q1.66-3.22 1.83-2.62Q2.00-2.03 2.32-1.61Q2.63-1.19 3.08-0.96Q3.53-0.73 4.09-0.73L4.09-0.73Q4.67-0.73 5.09-0.96Q5.52-1.19 5.90-1.61L5.90-1.61L6.47-1.00Q6-0.46 5.41-0.16Q4.82 0.14 4.07 0.14L4.07 0.14Q3.32 0.14 2.69-0.13Q2.06-0.41 1.60-0.93Q1.14-1.45 0.88-2.21Q0.62-2.98 0.62-3.94ZM10.49 0.14L10.49 0.14Q9.74 0.14 9.13-0.14Q8.51-0.43 8.06-0.97Q7.62-1.50 7.37-2.26Q7.13-3.02 7.13-3.97L7.13-3.97Q7.13-4.92 7.37-5.67Q7.62-6.42 8.06-6.94Q8.51-7.46 9.13-7.74Q9.74-8.02 10.49-8.02L10.49-8.02Q11.23-8.02 11.85-7.73Q12.47-7.45 12.92-6.93Q13.37-6.41 13.61-5.66Q13.86-4.91 13.86-3.97L13.86-3.97Q13.86-3.02 13.61-2.26Q13.37-1.50 12.92-0.97Q12.47-0.43 11.85-0.14Q11.23 0.14 10.49 0.14ZM10.49-0.73L10.49-0.73Q11.02-0.73 11.44-0.96Q11.87-1.19 12.17-1.61Q12.48-2.04 12.65-2.63Q12.82-3.23 12.82-3.97L12.82-3.97Q12.82-4.70 12.65-5.29Q12.48-5.88 12.17-6.29Q11.87-6.70 11.44-6.92Q11.02-7.14 10.49-7.14L10.49-7.14Q9.96-7.14 9.53-6.92Q9.11-6.70 8.80-6.29Q8.50-5.88 8.33-5.29Q8.16-4.70 8.16-3.97L8.16-3.97Q8.16-3.23 8.33-2.63Q8.50-2.04 8.80-1.61Q9.11-1.19 9.53-0.96Q9.96-0.73 10.49-0.73ZM15.55 0L15.55-7.87L16.58-7.87L19.43-2.93L20.28-1.30L20.33-1.30Q20.29-1.90 20.25-2.54Q20.21-3.18 20.21-3.80L20.21-3.80L20.21-7.87L21.16-7.87L21.16 0L20.12 0L17.27-4.96L16.42-6.58L16.37-6.58Q16.42-5.98 16.46-5.36Q16.50-4.74 16.50-4.12L16.50-4.12L16.50 0L15.55 0ZM24.95 0L24.95-7.03L22.57-7.03L22.57-7.87L28.33-7.87L28.33-7.03L25.96-7.03L25.96 0L24.95 0ZM29.75 0L29.75-7.87L34.28-7.87L34.28-7.03L30.74-7.03L30.74-4.56L33.73-4.56L33.73-3.71L30.74-3.71L30.74-0.85L34.40-0.85L34.40 0L29.75 0ZM36.07 0L36.07-7.87L37.10-7.87L39.95-2.93L40.80-1.30L40.85-1.30Q40.81-1.90 40.77-2.54Q40.73-3.18 40.73-3.80L40.73-3.80L40.73-7.87L41.68-7.87L41.68 0L40.64 0L37.79-4.96L36.94-6.58L36.89-6.58Q36.94-5.98 36.98-5.36Q37.02-4.74 37.02-4.12L37.02-4.12L37.02 0L36.07 0ZM45.47 0L45.47-7.03L43.09-7.03L43.09-7.87L48.85-7.87L48.85-7.03L46.48-7.03L46.48 0L45.47 0ZM54.32 0L54.32-7.03L51.95-7.03L51.95-7.87L57.71-7.87L57.71-7.03L55.33-7.03L55.33 0L54.32 0ZM60.12-7.07L60.12-4.14L61.44-4.14Q62.36-4.14 62.86-4.52Q63.35-4.90 63.35-5.66L63.35-5.66Q63.35-6.44 62.86-6.76Q62.36-7.07 61.44-7.07L61.44-7.07L60.12-7.07ZM64.57 0L63.44 0L61.55-3.32L60.12-3.32L60.12 0L59.12 0L59.12-7.87L61.58-7.87Q62.18-7.87 62.69-7.76Q63.20-7.64 63.57-7.38Q63.94-7.12 64.14-6.70Q64.34-6.28 64.34-5.66L64.34-5.66Q64.34-4.74 63.86-4.19Q63.38-3.64 62.58-3.43L62.58-3.43L64.57 0ZM66.96-3.20L69.32-3.20L68.95-4.40Q68.74-5.06 68.54-5.72Q68.35-6.37 68.16-7.06L68.16-7.06L68.11-7.06Q67.93-6.37 67.74-5.72Q67.55-5.06 67.33-4.40L67.33-4.40L66.96-3.20ZM70.32 0L69.58-2.40L66.71-2.40L65.95 0L64.93 0L67.60-7.87L68.72-7.87L71.39 0L70.32 0ZM71.93-3.94L71.93-3.94Q71.93-4.88 72.19-5.64Q72.46-6.40 72.92-6.92Q73.39-7.45 74.03-7.73Q74.68-8.02 75.43-8.02L75.43-8.02Q76.15-8.02 76.69-7.72Q77.23-7.43 77.58-7.04L77.58-7.04L77.02-6.41Q76.70-6.74 76.33-6.94Q75.95-7.14 75.44-7.14L75.44-7.14Q74.88-7.14 74.42-6.92Q73.97-6.70 73.64-6.28Q73.32-5.87 73.14-5.28Q72.96-4.69 72.96-3.96L72.96-3.96Q72.96-3.22 73.13-2.62Q73.31-2.03 73.62-1.61Q73.93-1.19 74.38-0.96Q74.83-0.73 75.40-0.73L75.40-0.73Q75.97-0.73 76.40-0.96Q76.82-1.19 77.21-1.61L77.21-1.61L77.77-1.00Q77.30-0.46 76.72-0.16Q76.13 0.14 75.37 0.14L75.37 0.14Q74.63 0.14 74.00-0.13Q73.37-0.41 72.91-0.93Q72.44-1.45 72.19-2.21Q71.93-2.98 71.93-3.94ZM79.24 0L79.24-7.87L80.23-7.87L80.23-3.92L80.27-3.92L83.54-7.87L84.67-7.87L82.21-4.87L85.06 0L83.94 0L81.59-4.09L80.23-2.50L80.23 0L79.24 0ZM86.18 0L86.18-7.87L90.72-7.87L90.72-7.03L87.18-7.03L87.18-4.56L90.17-4.56L90.17-3.71L87.18-3.71L87.18-0.85L90.84-0.85L90.84 0L86.18 0ZM93.50-7.07L93.50-4.14L94.82-4.14Q95.75-4.14 96.24-4.52Q96.73-4.90 96.73-5.66L96.73-5.66Q96.73-6.44 96.24-6.76Q95.75-7.07 94.82-7.07L94.82-7.07L93.50-7.07ZM97.96 0L96.83 0L94.93-3.32L93.50-3.32L93.50 0L92.51 0L92.51-7.87L94.97-7.87Q95.57-7.87 96.08-7.76Q96.59-7.64 96.95-7.38Q97.32-7.12 97.52-6.70Q97.73-6.28 97.73-5.66L97.73-5.66Q97.73-4.74 97.25-4.19Q96.77-3.64 95.96-3.43L95.96-3.43L97.96 0Z" transform="translate(-0.624, 8.016)"></path></g></g></g></g></g><defs v-gra="od"><linearGradient x1="0" y1="1" x2="0" y2="0" id="69f9aaf0-1b36-49ce-bdcf-b0d4eaaf1650"><stop offset="0%" stop-color="#a1c4fd"></stop><stop offset="100%" stop-color="#c2e9fb"></stop></linearGradient><filter id="42443b3f1de60f6b6fd3b6a9844b4764" filterUnits="objectBoundingBox"><feColorMatrix type="matrix" values="0 0 0 0 0.99609375  0 0 0 0 0.99609375  0 0 0 0 0.99609375  0 0 0 1 0"></feColorMatrix></filter></defs><defs v-gra="id"><filter id="5fa677a6-d11f-46fd-b135-f828a7d9c2f0" filterUnits="userSpaceOnUse"><feColorMatrix type="matrix" values="0 0 0 0 0.99609375  0 0 0 0 0.99609375  0 0 0 0 0.99609375  0 0 0 1 0"></feColorMatrix></filter><linearGradient x1="0" y1="1" x2="0" y2="0" id="b7kDjVt2DYZ0Hmk8ndqMA"><stop offset="0%" stop-color="#a1c4fd"></stop><stop offset="100%" stop-color="#c2e9fb"></stop></linearGradient><filter id="42443b3f1de60f6b6fd3b6a9844b4764" filterUnits="objectBoundingBox"><feColorMatrix type="matrix" values="0 0 0 0 0.99609375  0 0 0 0 0.99609375  0 0 0 0 0.99609375  0 0 0 1 0"></feColorMatrix></filter></defs><mask v-gra="im" id="dce2d3bf-e83e-4cb9-b68f-923f49dc177c"><g fill="#cd8c2a" class="iconsvg-imagesvg icon_container" filter="url(#5fa677a6-d11f-46fd-b135-f828a7d9c2f0)"><rect fill="#a1c4fd" fill-opacity="0" stroke-width="2" x="0" y="0" width="93" height="93" class="image-rect"></rect> <svg viewBox="0 0 60 60" x="0" y="0" width="93" height="93" class="image-svg-svg bn" style="overflow: visible;"><g hollow-target="iconBnFill" mask="url(#d4664c54-0ac4-4dc6-94a4-82ec0f0a29c5)"><g><svg fill="#000000" xmlns:x="http://ns.adobe.com/Extensibility/1.0/" xmlns:i="http://ns.adobe.com/AdobeIllustrator/10.0/" xmlns:graph="http://ns.adobe.com/Graphs/1.0/" xmlns="http://www.w3.org/2000/svg" xmlns:xlink="http://www.w3.org/1999/xlink" version="1.1" x="0" y="0" viewBox="6 6 52 52" enable-background="new 0 0 64 64" xml:space="preserve" style="overflow: visible;" width="60" height="60" filtersec="colorsf4336669295"><g transform="scale(1, 1) skewX(0)"><metadata><sfw xmlns="http://ns.adobe.com/SaveForWeb/1.0/"><slices></slices><slicesourcebounds y="-8160" x="-8165" width="16389" height="16384" bottomleftorigin="true"></slicesourcebounds><optimizationsettings><targetsettings targetsettingsid="0" fileformat="PNG24Format"><png24format transparency="true" filtered="false" interlaced="false" nomattecolor="false" mattecolor="#FFFFFF"></png24format></targetsettings></optimizationsettings></sfw></metadata><g><path d="M56,6H8C6.896,6,6,6.896,6,8v48c0,1.104,0.896,2,2,2h48c1.104,0,2-0.896,2-2V8C58,6.896,57.104,6,56,6z"></path></g></g><defs><filter id="lR9T6Jf6YoeYJMpQgC-lk"><feColorMatrix type="matrix" values="0 0 0 0 0.80078125  0 0 0 0 0.546875  0 0 0 0 0.1640625  0 0 0 1 0"></feColorMatrix></filter></defs></svg></g> <g><svg xmlns="http://www.w3.org/2000/svg" xmlns:xlink="http://www.w3.org/1999/xlink" viewBox="0 0 47.52 48.24000000000001" width="44" height="44" x="8" y="8" class="image-svg-letter"><path transform="translate(-2.232 48.24000000000001)" d="M2.23-48.24L2.23-32.04L10.08-32.04L10.66-39.74L20.88-39.74L20.88-8.50L16.13-8.50L16.13 0L35.86 0L35.86-8.50L31.18-8.50L31.18-39.74L41.33-39.74L41.98-32.04L49.75-32.04L49.75-48.24Z"></path></svg></g></g><mask id="d4664c54-0ac4-4dc6-94a4-82ec0f0a29c5"><g fill="white"><svg xmlns:x="http://ns.adobe.com/Extensibility/1.0/" xmlns:i="http://ns.adobe.com/AdobeIllustrator/10.0/" xmlns:graph="http://ns.adobe.com/Graphs/1.0/" xmlns="http://www.w3.org/2000/svg" xmlns:xlink="http://www.w3.org/1999/xlink" version="1.1" x="0" y="0" viewBox="6 6 52 52" enable-background="new 0 0 64 64" xml:space="preserve" style="overflow: visible;" width="60" height="60" filtersec="colorsf4336669295"><g transform="scale(1, 1) skewX(0)"><metadata><sfw xmlns="http://ns.adobe.com/SaveForWeb/1.0/"><slices></slices><slicesourcebounds y="-8160" x="-8165" width="16389" height="16384" bottomleftorigin="true"></slicesourcebounds><optimizationsettings><targetsettings targetsettingsid="0" fileformat="PNG24Format"><png24format transparency="true" filtered="false" interlaced="false" nomattecolor="false" mattecolor="#FFFFFF"></png24format></targetsettings></optimizationsettings></sfw></metadata><g><path d="M56,6H8C6.896,6,6,6.896,6,8v48c0,1.104,0.896,2,2,2h48c1.104,0,2-0.896,2-2V8C58,6.896,57.104,6,56,6z"></path></g></g><defs></defs></svg></g> <g fill="black"><svg xmlns="http://www.w3.org/2000/svg" xmlns:xlink="http://www.w3.org/1999/xlink" viewBox="0 0 47.52 48.24000000000001" width="44" height="44" x="8" y="8" class="image-svg-letter"><path transform="translate(-2.232 48.24000000000001)" d="M2.23-48.24L2.23-32.04L10.08-32.04L10.66-39.74L20.88-39.74L20.88-8.50L16.13-8.50L16.13 0L35.86 0L35.86-8.50L31.18-8.50L31.18-39.74L41.33-39.74L41.98-32.04L49.75-32.04L49.75-48.24Z"></path></svg></g></mask></svg> <defs><filter id="colors3954764144"><feColorMatrix type="matrix" values="0 0 0 0 0.80078125  0 0 0 0 0.546875  0 0 0 0 0.1640625  0 0 0 1 0" class="icon-fecolormatrix"></feColorMatrix></filter> <filter id="colorsf4336669295"><feColorMatrix type="matrix" values="0 0 0 0 0.99609375  0 0 0 0 0.99609375  0 0 0 0 0.99609375  0 0 0 1 0" class="icon-fecolormatrix"></feColorMatrix></filter> <filter id="colorsb2678200373"><feColorMatrix type="matrix" values="0 0 0 0 0  0 0 0 0 0  0 0 0 0 0  0 0 0 1 0" class="icon-fecolormatrix"></feColorMatrix></filter></defs></g></mask></svg>
