<svg width="512" height="252" viewBox="0 0 512 252" xmlns="http://www.w3.org/2000/svg"><rect width="512" height="252" rx="64" fill="#1E1E1E"/><g transform="translate(140 126)"><rect x="-80" y="-80" width="160" height="160" rx="16" fill="#F7DF1E"/><text x="-65" y="30" font-family="Arial Black" font-size="80">JS</text></g><g transform="translate(372 126)"><rect x="-80" y="-80" width="160" height="160" rx="16" fill="#3178C6"/><text x="-25" y="30" font-family="Arial Black" font-size="80" fill="#FFF">TS</text></g><g transform="translate(256 126)"><circle r="85" fill="#1E1E1E"/><circle r="80" fill="none" stroke="#f5ec9b" stroke-width="2"/><circle r="78" fill="#1E1E1E"/><defs><linearGradient id="a"><stop stop-color="#905e26" offset="0"/><stop stop-color="#f5ec9b" offset=".5"/><stop stop-color="#905e26" offset="1"/></linearGradient></defs><g transform="matrix(1.9 0 0 1.9 -95 -95)" fill="url(#a)"><path d="M50 93.166C26.198 93.166 6.834 73.802 6.834 50S26.198 6.834 50 6.834 93.166 26.198 93.166 50 73.802 93.166 50 93.166m0-84.332C27.301 8.834 8.834 27.301 8.834 50S27.301 91.166 50 91.166 91.166 72.699 91.166 50 72.699 8.834 50 8.834"/><path d="m44.714 46.55-.107-.742c18.198-2.623 28.245-13.025 31.72-17.375l.586.468C73.382 33.32 63.177 43.889 44.714 46.55"/><circle cx="44.793" cy="46.114" r="2.82"/><circle cx="76.514" cy="28.767" r="2.82"/><path d="M33.874 80.997c-3.484-4.387-9.012-13.539-6.895-25.552l.738.131c-2.066 11.723 3.338 20.666 6.743 24.954z"/><circle cx="27.345" cy="55.653" r="2.82"/><circle cx="34.08" cy="80.649" r="2.82"/><path d="m78.553 58.284-.75-.021c.262-9.375-3.322-18.348-10.093-25.265-7.05-7.204-16.891-11.292-27.026-11.233l-.005-.75c10.321-.04 20.376 4.11 27.567 11.458 6.914 7.064 10.574 16.231 10.307 25.811"/><circle cx="78.128" cy="58.131" r="2.82"/><circle cx="40.819" cy="21.442" r="2.82"/></g></g></svg>
