<svg xmlns="http://www.w3.org/2000/svg" aria-hidden="true" fill="#eaebef" viewBox="0 0 122.879 88.855" xml:space="preserve"><path d="M7.048 0h108.784a7.03 7.03 0 0 1 4.977 2.069 7.03 7.03 0 0 1 2.07 4.979v74.759a7 7 0 0 1-1.221 3.951 2.74 2.74 0 0 1-.662.994 2.8 2.8 0 0 1-.656.461 7.03 7.03 0 0 1-4.508 1.643H7.048a7.03 7.03 0 0 1-4.979-2.07A7.03 7.03 0 0 1 0 81.807V7.048c0-1.941.792-3.704 2.068-4.979A7.03 7.03 0 0 1 7.048 0M5.406 78.842l38.124-38.22L5.406 9.538zm42.323-34.797L8.424 83.449h105.701L76.563 44.051 64.18 54.602a2.7 2.7 0 0 1-3.453.043zm32.945-3.496 36.799 38.598V9.198zM8.867 5.406l53.521 43.639 51.223-43.639z"/></svg>