<svg xmlns="http://www.w3.org/2000/svg" aria-hidden="true" fill="#eaebef" viewBox="0 0 72.93 122.88" xml:space="preserve"><path d="M10.94 0h51.04C68 0 72.93 4.93 72.93 10.94v100.99c0 6.02-4.93 10.94-10.94 10.94H10.95C4.93 122.88 0 117.95 0 111.94V10.95C0 4.93 4.93 0 10.94 0m25.52 100.1a7.09 7.09 0 0 1 7.09 7.09c0 3.91-3.18 7.09-7.09 7.09-3.92 0-7.09-3.17-7.09-7.09 0-3.91 3.18-7.09 7.09-7.09M25.17 8.86h22.59c.16 0 .3.14.3.3v3.3c0 .16-.14.3-.3.3H25.17a.3.3 0 0 1-.3-.3v-3.3c0-.17.13-.3.3-.3M9.65 21.53h53.63c.98 0 1.78.81 1.78 1.78v70.01c0 .97-.81 1.78-1.78 1.78H9.65c-.97 0-1.78-.8-1.78-1.78V23.3c0-.97.8-1.77 1.78-1.77" style="fill-rule:evenodd;clip-rule:evenodd"/></svg>