<svg xmlns="http://www.w3.org/2000/svg" aria-hidden="true" fill="#eaebef" width="100" viewBox="0 0 64 64"><path d="M57 2H13c-2.757 0-5 2.243-5 5v20H5c-1.654 0-3 1.346-3 3v29c0 1.654 1.346 3 3 3h21c1.654 0 3-1.346 3-3v-6h3v6c0 1.654 1.346 3 3 3h24c1.654 0 3-1.346 3-3V48c0-1.654-1.346-3-3-3H46.721l-1.333-4H57c2.757 0 5-2.243 5-5V7c0-2.757-2.243-5-5-5M27 59c0 .552-.449 1-1 1H5c-.551 0-1-.448-1-1v-2h23zm0-4H4V34h23zm0-23H4v-2c0-.552.449-1 1-1h21c.551 0 1 .448 1 1zm5 19h-3v-2h3zm.184-4H29v-6h14.279l1.333 4H35a3 3 0 0 0-2.816 2M36 60h-1c-.551 0-1-.448-1-1V48c0-.552.449-1 1-1h1zm22-13h1c.551 0 1 .448 1 1v11c0 .552-.449 1-1 1h-1zm-2 0v13H38V47zm4-11c0 1.654-1.346 3-3 3H29v-5h31zm0-4H29v-2c0-1.654-1.346-3-3-3H10V7c0-1.654 1.346-3 3-3h44c1.654 0 3 1.346 3 3z"/><path d="m23.293 22.293 12-12 1.415 1.413-12 12.001zm12 0 12-12 1.415 1.413-12 12.001zm-28 24 8-8 1.414 1.414-8 8zm6 2 8-8 1.414 1.414-8 8zm27 7 6-6 1.414 1.414-6 6zm6 0 6-6 1.414 1.414-6 6zM56 28h2v2h-2zm-4 0h2v2h-2zm-4 0h2v2h-2z"/></svg>